<svg xmlns="http://www.w3.org/2000/svg" viewBox="0 0 1024 1024">
  <defs>
    <linearGradient id="bg" x1="0" y1="0" x2="1" y2="1">
      <stop offset="0" stop-color="#17152d"/>
      <stop offset="1" stop-color="#080b14"/>
    </linearGradient>
    <linearGradient id="ring" x1="0" y1="0" x2="1" y2="1">
      <stop offset="0" stop-color="#aa9dfd"/>
      <stop offset="1" stop-color="#6657cf"/>
    </linearGradient>
    <filter id="glow" x="-50%" y="-50%" width="200%" height="200%">
      <feGaussianBlur stdDeviation="18" result="b"/>
      <feMerge><feMergeNode in="b"/><feMergeNode in="SourceGraphic"/></feMerge>
    </filter>
  </defs>
  <rect width="1024" height="1024" rx="224" fill="url(#bg)"/>
  <circle cx="512" cy="530" r="248" fill="#111629" stroke="url(#ring)" stroke-width="34"/>
  <circle cx="512" cy="530" r="147" fill="#8d7cf8" opacity=".13"/>
  <path d="M440 518c0-40 32-72 72-72s72 32 72 72v84h-144z" fill="url(#ring)" filter="url(#glow)"/>
  <circle cx="512" cy="397" r="60" fill="#c8c0ff"/>
  <g fill="#3ed8bc" stroke="#07120f" stroke-width="10">
    <circle cx="512" cy="178" r="62"/>
    <circle cx="774" cy="330" r="62"/>
    <circle cx="774" cy="730" r="62"/>
    <circle cx="250" cy="730" r="62"/>
    <circle cx="250" cy="330" r="62"/>
  </g>
  <g fill="none" stroke="#8d7cf8" stroke-linecap="round" stroke-width="22" opacity=".62">
    <path d="M512 240v77"/><path d="M719 365l-69 41"/><path d="M716 690l-68-40"/><path d="M308 690l68-40"/><path d="M305 365l69 41"/>
  </g>
</svg>

